<svg xmlns="http://www.w3.org/2000/svg" version="1.1" xmlns:xlink="http://www.w3.org/1999/xlink" viewBox="0 0 200 200"><rect width="200" height="200" fill="url('#gradient')"></rect><defs><linearGradient id="gradient" gradientTransform="rotate(56 0.5 0.5)"><stop offset="0%" stop-color="#66ba7e"></stop><stop offset="100%" stop-color="#4d4b99"></stop></linearGradient></defs><g><g fill="#ffffff" transform="matrix(3.674124102997045,0,0,3.674124102997045,11.063840959634703,126.10902552767713)" stroke="#b15bd4" stroke-width="0"><path d="M10.03-8.30L10.03-5.66L4.50-5.66L4.50 0L1.07 0L1.07-14.22L10.59-14.22L10.59-11.57L4.50-11.57L4.50-8.30L10.03-8.30ZM20.83-8.57L20.83-6.03L15.44-6.03L15.44-2.64L21.81-2.64L21.81 0L12.01 0L12.01-14.22L21.83-14.22L21.83-11.57L15.44-11.57L15.44-8.57L20.83-8.57ZM35.24-7.47L35.24-6.82Q35.24-4.74 34.47-3.13Q33.70-1.53 32.28-0.67Q30.86 0.20 29.04 0.20Q27.23 0.20 25.82-0.64Q24.41-1.47 23.63-3.03Q22.84-4.58 22.80-6.59L22.80-6.59L22.80-7.39Q22.80-9.48 23.57-11.08Q24.34-12.68 25.77-13.54Q27.20-14.41 29.02-14.41L29.02-14.41Q30.83-14.41 32.25-13.55Q33.66-12.70 34.45-11.11Q35.23-9.52 35.24-7.47L35.24-7.47ZM31.76-6.76L31.76-7.41Q31.76-9.53 31.05-10.63Q30.34-11.73 29.02-11.73L29.02-11.73Q26.45-11.73 26.30-7.86L26.30-7.86L26.29-6.82Q26.29-4.73 26.98-3.60Q27.68-2.48 29.04-2.48L29.04-2.48Q30.34-2.48 31.04-3.58Q31.75-4.69 31.76-6.76L31.76-6.76ZM47.34-14.22L47.34-11.57L43.08-11.57L43.08 0L39.65 0L39.65-11.57L35.46-11.57L35.46-14.22L47.34-14.22Z"></path></g></g></svg>